<?xml version="1.0" encoding="utf-8"?>
<!-- Generator: Adobe Illustrator 18.0.0, SVG Export Plug-In . SVG Version: 6.00 Build 0)  -->
<!DOCTYPE svg PUBLIC "-//W3C//DTD SVG 1.1//EN" "http://www.w3.org/Graphics/SVG/1.1/DTD/svg11.dtd">
<svg version="1.1" id="Layer_1" xmlns="http://www.w3.org/2000/svg" xmlns:xlink="http://www.w3.org/1999/xlink" x="0px" y="0px"
	 viewBox="0 0 374 88" enable-background="new 0 0 374 88" xml:space="preserve">
<g>
	<path fill="#FFFFFF" d="M216.6,29.8c-0.8-0.8-1.8-1.2-3-1.2c-2,0-4.3,1.2-6.7,3.7c-1.5-1-3-1.7-4.6-2.2c-1.6-0.5-3.2-0.7-4.9-0.7
		c-4.1,0-7.5,1.1-10.1,3.3c-2.5,2.1-3.8,4.7-3.9,7.9c0,0.7,0,1.3,0.1,1.9c0.2,1.3,0.6,2.4,1.2,3.5c0.5,0.9,1.1,1.6,1.9,2.4
		c0.6,0.6,2,1.7,2.9,2.2c0,0-6,2.1-6.7,7c-0.2,1.8,0.3,3.3,1.1,4.5c1.1,1.4,2.6,2.3,4.1,2.8c1.3,0.5,3.1,1,3.2,1.1
		c-15.6,0.6-13.9,18.4,7.4,18.3c20.4-0.1,25.8-21.3,3.5-23.2c-1.5-0.2-4.3-0.2-5.6-0.2c-1.1,0-3.1-0.1-3.9-0.2
		c-2.1-0.2-3.5-0.6-4.4-1.2c-0.9-0.6-1.4-1.3-1.4-2.1c-0.5-4.8,8.3-4.7,8.8-4.9c0.1,0,0.1,0,0.2,0c0.2,0,0.4,0.1,0.9,0.1h1.3
		c2.2,0,4.4-0.6,6.8-1.9c2.4-1.2,4-2.7,5.1-4.3c1-1.6,1.5-3.5,1.5-5.6c0-1.2-0.2-2.3-0.6-3.4c-0.4-1.1-1.1-2.3-2.1-3.7
		c1-1.1,1.9-1.6,2.7-1.6c0.5,0,0.8,0.4,1,1.1c0.5,1.7,1.4,2.5,2.8,2.5c0.7,0,1.4-0.3,1.9-0.9c0.5-0.6,0.8-1.3,0.8-2.2
		C217.8,31.5,217.4,30.5,216.6,29.8z M197.9,66.5c9.8,0,13.7,3,13.2,7.6c-0.5,4.3-4.7,7.6-12,7.6c-7.8,0-12.4-2.2-13.5-6.2
		C184.7,72.3,188.1,66.5,197.9,66.5z M204.7,42.7c-0.4,2.8-1.4,4.9-3.1,6.2c-1.7,1.3-3.5,1.7-5.6,1.3c-2.1-0.4-3.7-1.7-4.8-3.9
		c-1.1-2.1-1.5-4.5-1.1-7.3c0.4-2.7,1.4-4.6,3.1-5.9c1.7-1.3,3.5-1.7,5.6-1.2c2.1,0.4,3.7,1.7,4.8,3.7
		C204.7,37.6,205.1,40,204.7,42.7z"/>
	<path fill="#FFFFFF" d="M66.3,8.9h43.6l0.7,18.6h-2.5c-1.1-6.4-2.7-10.5-4.7-12.5c-2.3-2.2-5.6-3.4-9.8-3.4h-8.6
		c-0.8,0-1.5,0.2-1.9,0.6c-0.4,0.4-0.6,1-0.6,1.8v19.4h4.6c2.6,0,4.6-0.8,6.1-2.5c1.5-1.7,2.3-4.3,2.5-7.8h2.6v24.2h-2.6
		c-0.2-4-1-6.9-2.5-8.6c-1.5-1.7-3.5-2.6-6.1-2.6h-4.6v20.5c0,1.2,0.3,2.1,0.9,2.6c0.6,0.5,1.6,0.7,3,0.7h5.6v2.7H66.3v-2.7h5.5
		c1.1,0,1.9-0.2,2.4-0.7c0.5-0.4,0.7-1.2,0.7-2.2V14.3c0-1-0.2-1.7-0.7-2.1c-0.5-0.4-1.4-0.6-2.6-0.6h-5.3V8.9z"/>
	<path fill="#FFFFFF" d="M113.5,28.5l13.5-0.4v29.2c0,0.8,0.2,1.4,0.6,1.7c0.6,0.5,1.3,0.7,2.1,0.7h3.8v2.7h-19.3v-2.7h3.6
		c1.1,0,1.8-0.3,2.3-0.8c0.5-0.5,0.7-1.3,0.7-2.3V35.3c0-1.4-0.4-2.4-1.2-3.1c-0.8-0.7-1.9-1-3.4-1h-2.8V28.5z M123,8.2
		c1.1,0,2,0.4,2.9,1.2c0.8,0.8,1.2,1.8,1.2,2.9c0,1.1-0.4,2-1.2,2.8c-0.8,0.8-1.8,1.2-2.9,1.2c-1.1,0-2.1-0.4-2.9-1.2
		c-0.8-0.8-1.2-1.8-1.2-2.8c0-1.1,0.4-2,1.2-2.9C121,8.6,121.9,8.2,123,8.2z"/>
	<path fill="#FFFFFF" d="M137.4,28.5l11.3-0.7c0.5,2.1,0.8,4.6,1,7.5c1.5-2.5,3.3-4.3,5.4-5.6c2.1-1.2,4.4-1.9,7-1.9
		c2.2,0,4.1,0.4,5.7,1.3c1.5,0.9,2.7,2.3,3.7,4.2c0.9,1.9,1.4,4.1,1.4,6.4v16.5c0,1.2,0.3,2.1,0.8,2.6c0.6,0.5,1.5,0.8,2.8,0.8h2.4
		v2.7h-17.9v-2.7h1.7c1.6,0,2.7-0.3,3.3-0.8c0.6-0.5,0.9-1.3,0.9-2.3V42.2c0-3.2-0.5-5.5-1.5-7c-1.4-2.2-3.4-3.3-6.2-3.3
		c-2.7,0-5,1.1-6.8,3.3c-1.8,2.2-2.7,5.1-2.7,8.6v12.6c0,1.2,0.3,2.1,0.9,2.6c0.6,0.5,1.5,0.8,2.8,0.8h2.4v2.7h-18v-2.7h2.4
		c1.2,0,2.1-0.2,2.7-0.7c0.6-0.5,0.9-1.1,0.9-1.8v-22c0-1.5-0.4-2.6-1.2-3.3c-0.8-0.7-1.9-1.1-3.4-1.1h-1.7V28.5z"/>
	<path fill="#FFFFFF" d="M250,45.8h-24.3c0.1,5.2,1.1,8.8,2.9,11c2.1,2.4,4.7,3.6,7.9,3.6c4.7,0,8.6-2.7,11.4-8.1l2.4,1
		c-3.5,6.9-8.6,10.3-15.3,10.3c-4.5,0-8.4-1.6-11.5-4.9c-3.1-3.3-4.7-7.5-4.7-12.6c0-5.5,1.5-10,4.6-13.4c3.1-3.4,6.8-5.1,11.3-5.1
		c3.3,0,6.1,0.8,8.5,2.5c2.4,1.7,4.2,4.1,5.4,7.3C249.5,39.6,249.9,42.4,250,45.8z M225.6,43.2h14.7c0.9,0,1.5-0.3,2-0.9
		c0.5-0.6,0.7-1.6,0.7-3c0-2.7-0.8-4.9-2.5-6.8c-1.7-1.9-3.6-2.8-5.9-2.8c-2.5,0-4.7,1.1-6.4,3.4C226.6,35.3,225.7,38.7,225.6,43.2z
		"/>
	<path fill="#FFFFFF" d="M253.3,28.5l11.3-0.7c0.5,2.1,0.8,4.6,1,7.5c1.5-2.5,3.3-4.3,5.4-5.6c2.1-1.2,4.4-1.9,7-1.9
		c2.2,0,4.1,0.4,5.7,1.3c1.5,0.9,2.7,2.3,3.7,4.2c0.9,1.9,1.4,4.1,1.4,6.4v16.5c0,1.2,0.3,2.1,0.8,2.6c0.6,0.5,1.5,0.8,2.8,0.8h2.4
		v2.7h-17.9v-2.7h1.7c1.6,0,2.7-0.3,3.3-0.8c0.6-0.5,0.9-1.3,0.9-2.3V42.2c0-3.2-0.5-5.5-1.5-7c-1.4-2.2-3.4-3.3-6.2-3.3
		c-2.7,0-5,1.1-6.8,3.3c-1.8,2.2-2.7,5.1-2.7,8.6v12.6c0,1.2,0.3,2.1,0.9,2.6c0.6,0.5,1.5,0.8,2.8,0.8h2.4v2.7h-18v-2.7h2.4
		c1.2,0,2.1-0.2,2.7-0.7c0.6-0.5,0.9-1.1,0.9-1.8v-22c0-1.5-0.4-2.6-1.2-3.3c-0.8-0.7-1.9-1.1-3.4-1.1h-1.7V28.5z"/>
	<path fill="#FFFFFF" d="M303.2,14.7h2.4v13.9h11v3.3h-11v21.8c0,1.9,0.4,3.3,1.3,4.3c0.9,1,2,1.5,3.4,1.5c1.6,0,3-0.8,4.2-2.3
		c1.2-1.5,1.8-4,2-7.5h2.4c-0.1,4.5-1.2,7.9-3.1,10.1c-1.9,2.2-4.4,3.3-7.4,3.3c-2.8,0-5-0.8-6.6-2.3c-1.6-1.5-2.4-3.5-2.4-6V31.9
		h-5.9v-2.5c2.7-0.5,4.7-1.6,6.2-3.4C301.9,23.3,303,19.5,303.2,14.7z"/>
	<rect x="223.3" y="69.1" fill="none" width="148.4" height="13.5"/>
	<text transform="matrix(1 0 0 1 223.2617 81.8955)" fill="#FFFFFF" font-family="'Roboto-Medium'" font-size="16.7575">Shaping the Future</text>
	<g>
		<g>
			<path fill="#FFFFFF" stroke="#FFFFFF" stroke-miterlimit="10" d="M61.9,36.3h-1.2c0-3.8-11.5-8-28.6-8c-17.1,0-28.6,4.1-28.6,8
				H2.4c0-5.7,15.1-9.2,29.8-9.2C46.8,27.2,61.9,30.6,61.9,36.3z"/>
		</g>
		<g>
			<path fill="#FFFFFF" stroke="#FFFFFF" stroke-width="0.3" stroke-miterlimit="10" d="M52.6,56.7H11.7V15.9h40.8V56.7z M12,56.5
				h40.2V16.2H12V56.5z"/>
		</g>
		<path fill="#FFFFFF" d="M13.3,55.2l17.9-16.6c0.1-0.1,0.9-2.2,0.9-2.2s0.5,1.9,0.6,2L51,55.1L34.2,36.9l-2-0.6l1.9-0.3l16.8-18.5
			L32.7,34.7l-0.6,1.7l-0.6-2.2L13.8,18l16.6,17.8l1.7,0.6L30,36.9L13.3,55.2z"/>
		<g>
			<path fill="#FFFFFF" stroke="#FFFFFF" stroke-miterlimit="10" d="M32.1,45.5c-14.6,0-29.8-3.4-29.8-9.2h1.2c0,3.8,11.5,8,28.6,8
				c17.1,0,28.6-4.1,28.6-8h1.2C61.9,42.1,46.8,45.5,32.1,45.5z"/>
		</g>
		<g>
			<rect x="31.5" y="16.9" fill="#FFFFFF" stroke="#FFFFFF" stroke-width="1.1" stroke-miterlimit="10" width="1.2" height="38.8"/>
		</g>
		<g>
			<rect x="12.7" y="35.7" fill="#FFFFFF" stroke="#FFFFFF" stroke-width="1.1" stroke-miterlimit="10" width="38.8" height="1.2"/>
		</g>
		<g>
			<path fill="#FFFFFF" stroke="#FFFFFF" stroke-miterlimit="10" d="M32.1,66.1c-16.4,0-29.8-13.4-29.8-29.8S15.7,6.6,32.1,6.6
				c16.4,0,29.8,13.4,29.8,29.8S48.6,66.1,32.1,66.1z M32.1,7.8C16.4,7.8,3.6,20.6,3.6,36.3c0,15.7,12.8,28.6,28.6,28.6
				s28.6-12.8,28.6-28.6C60.7,20.6,47.9,7.8,32.1,7.8z"/>
		</g>
	</g>
</g>
</svg>
